<mxfile host="app.diagrams.net" modified="2021-06-27T06:39:52.273Z" agent="5.0 (Windows NT 10.0; Win64; x64) AppleWebKit/537.36 (KHTML, like Gecko) Chrome/91.0.4472.106 Safari/537.36" etag="4x4YqfCTKpdvKB4rywnJ" version="14.8.1" type="github">
  <diagram id="_FgbTrC4k-Xs5fvmUxVo" name="Page-1">
    <mxGraphModel dx="1422" dy="737" grid="1" gridSize="10" guides="1" tooltips="1" connect="1" arrows="1" fold="1" page="1" pageScale="1" pageWidth="1100" pageHeight="850" math="0" shadow="0">
      <root>
        <mxCell id="0" />
        <mxCell id="1" parent="0" />
        <mxCell id="WU8aa1a8PACP_APHZHh1-11" value="Analysis &amp; Design Process" style="swimlane;childLayout=stackLayout;resizeParent=1;resizeParentMax=0;startSize=20;align=left;" vertex="1" parent="1">
          <mxGeometry x="40" y="40" width="940" height="800" as="geometry" />
        </mxCell>
        <mxCell id="WU8aa1a8PACP_APHZHh1-12" value="Business Analyst" style="swimlane;startSize=20;" vertex="1" parent="WU8aa1a8PACP_APHZHh1-11">
          <mxGeometry y="20" width="160" height="780" as="geometry" />
        </mxCell>
        <mxCell id="WU8aa1a8PACP_APHZHh1-49" style="edgeStyle=orthogonalEdgeStyle;rounded=0;orthogonalLoop=1;jettySize=auto;html=1;exitX=0.5;exitY=1;exitDx=0;exitDy=0;exitPerimeter=0;entryX=0.5;entryY=0;entryDx=0;entryDy=0;fontSize=11;" edge="1" parent="WU8aa1a8PACP_APHZHh1-12" source="WU8aa1a8PACP_APHZHh1-19" target="WU8aa1a8PACP_APHZHh1-23">
          <mxGeometry relative="1" as="geometry" />
        </mxCell>
        <mxCell id="WU8aa1a8PACP_APHZHh1-19" value="Start" style="strokeWidth=2;html=1;shape=mxgraph.flowchart.terminator;whiteSpace=wrap;align=center;fontSize=11;" vertex="1" parent="WU8aa1a8PACP_APHZHh1-12">
          <mxGeometry x="50" y="30" width="60" height="30" as="geometry" />
        </mxCell>
        <mxCell id="WU8aa1a8PACP_APHZHh1-23" value="Provide FS" style="rounded=1;whiteSpace=wrap;html=1;absoluteArcSize=1;arcSize=14;strokeWidth=2;align=center;fontSize=11;" vertex="1" parent="WU8aa1a8PACP_APHZHh1-12">
          <mxGeometry x="30" y="100" width="100" height="40" as="geometry" />
        </mxCell>
        <mxCell id="WU8aa1a8PACP_APHZHh1-45" style="edgeStyle=orthogonalEdgeStyle;rounded=0;orthogonalLoop=1;jettySize=auto;html=1;exitX=0.5;exitY=0;exitDx=0;exitDy=0;entryX=0.5;entryY=1;entryDx=0;entryDy=0;fontSize=11;" edge="1" parent="WU8aa1a8PACP_APHZHh1-12" source="WU8aa1a8PACP_APHZHh1-44" target="WU8aa1a8PACP_APHZHh1-23">
          <mxGeometry relative="1" as="geometry" />
        </mxCell>
        <mxCell id="WU8aa1a8PACP_APHZHh1-44" value="Revise FS" style="rounded=1;whiteSpace=wrap;html=1;absoluteArcSize=1;arcSize=14;strokeWidth=2;align=center;fontSize=11;" vertex="1" parent="WU8aa1a8PACP_APHZHh1-12">
          <mxGeometry x="30" y="200" width="100" height="40" as="geometry" />
        </mxCell>
        <mxCell id="WU8aa1a8PACP_APHZHh1-90" style="edgeStyle=orthogonalEdgeStyle;rounded=0;orthogonalLoop=1;jettySize=auto;html=1;exitX=0.5;exitY=1;exitDx=0;exitDy=0;fontSize=11;" edge="1" parent="WU8aa1a8PACP_APHZHh1-12" source="WU8aa1a8PACP_APHZHh1-70" target="WU8aa1a8PACP_APHZHh1-71">
          <mxGeometry relative="1" as="geometry" />
        </mxCell>
        <mxCell id="WU8aa1a8PACP_APHZHh1-70" value="Review DS" style="rounded=1;whiteSpace=wrap;html=1;absoluteArcSize=1;arcSize=14;strokeWidth=2;align=center;fontSize=11;" vertex="1" parent="WU8aa1a8PACP_APHZHh1-12">
          <mxGeometry x="30" y="540" width="100" height="40" as="geometry" />
        </mxCell>
        <mxCell id="WU8aa1a8PACP_APHZHh1-91" style="edgeStyle=orthogonalEdgeStyle;rounded=0;orthogonalLoop=1;jettySize=auto;html=1;exitX=0.5;exitY=1;exitDx=0;exitDy=0;exitPerimeter=0;fontSize=11;" edge="1" parent="WU8aa1a8PACP_APHZHh1-12" source="WU8aa1a8PACP_APHZHh1-71" target="WU8aa1a8PACP_APHZHh1-69">
          <mxGeometry relative="1" as="geometry" />
        </mxCell>
        <mxCell id="WU8aa1a8PACP_APHZHh1-71" value="Pass review?" style="strokeWidth=2;html=1;shape=mxgraph.flowchart.decision;whiteSpace=wrap;align=center;fontSize=11;" vertex="1" parent="WU8aa1a8PACP_APHZHh1-12">
          <mxGeometry x="20" y="630" width="120" height="60" as="geometry" />
        </mxCell>
        <mxCell id="WU8aa1a8PACP_APHZHh1-69" value="Provide sign-off" style="rounded=1;whiteSpace=wrap;html=1;absoluteArcSize=1;arcSize=14;strokeWidth=2;align=center;fontSize=11;" vertex="1" parent="WU8aa1a8PACP_APHZHh1-12">
          <mxGeometry x="30" y="730" width="100" height="40" as="geometry" />
        </mxCell>
        <mxCell id="WU8aa1a8PACP_APHZHh1-92" style="edgeStyle=orthogonalEdgeStyle;rounded=0;orthogonalLoop=1;jettySize=auto;html=1;exitX=1;exitY=0.5;exitDx=0;exitDy=0;exitPerimeter=0;entryX=0.5;entryY=1;entryDx=0;entryDy=0;fontSize=11;" edge="1" parent="WU8aa1a8PACP_APHZHh1-11" source="WU8aa1a8PACP_APHZHh1-71" target="WU8aa1a8PACP_APHZHh1-60">
          <mxGeometry relative="1" as="geometry">
            <mxPoint x="140" y="650" as="sourcePoint" />
          </mxGeometry>
        </mxCell>
        <mxCell id="WU8aa1a8PACP_APHZHh1-13" value="App Designer" style="swimlane;startSize=20;" vertex="1" parent="WU8aa1a8PACP_APHZHh1-11">
          <mxGeometry x="160" y="20" width="420" height="780" as="geometry" />
        </mxCell>
        <mxCell id="WU8aa1a8PACP_APHZHh1-39" style="edgeStyle=orthogonalEdgeStyle;rounded=0;orthogonalLoop=1;jettySize=auto;html=1;exitX=0.5;exitY=1;exitDx=0;exitDy=0;fontSize=11;" edge="1" parent="WU8aa1a8PACP_APHZHh1-13" source="WU8aa1a8PACP_APHZHh1-24" target="WU8aa1a8PACP_APHZHh1-27">
          <mxGeometry relative="1" as="geometry" />
        </mxCell>
        <mxCell id="WU8aa1a8PACP_APHZHh1-24" value="Analyse requirements" style="rounded=1;whiteSpace=wrap;html=1;absoluteArcSize=1;arcSize=14;strokeWidth=2;align=center;fontSize=11;" vertex="1" parent="WU8aa1a8PACP_APHZHh1-13">
          <mxGeometry x="40" y="100" width="100" height="40" as="geometry" />
        </mxCell>
        <mxCell id="WU8aa1a8PACP_APHZHh1-40" style="edgeStyle=orthogonalEdgeStyle;rounded=0;orthogonalLoop=1;jettySize=auto;html=1;exitX=0.5;exitY=1;exitDx=0;exitDy=0;exitPerimeter=0;entryX=0.5;entryY=0;entryDx=0;entryDy=0;fontSize=11;" edge="1" parent="WU8aa1a8PACP_APHZHh1-13" source="WU8aa1a8PACP_APHZHh1-27" target="WU8aa1a8PACP_APHZHh1-29">
          <mxGeometry relative="1" as="geometry" />
        </mxCell>
        <mxCell id="WU8aa1a8PACP_APHZHh1-46" style="edgeStyle=orthogonalEdgeStyle;rounded=0;orthogonalLoop=1;jettySize=auto;html=1;exitX=1;exitY=0.5;exitDx=0;exitDy=0;exitPerimeter=0;entryX=0.5;entryY=0;entryDx=0;entryDy=0;fontSize=11;" edge="1" parent="WU8aa1a8PACP_APHZHh1-13" source="WU8aa1a8PACP_APHZHh1-27" target="WU8aa1a8PACP_APHZHh1-28">
          <mxGeometry relative="1" as="geometry" />
        </mxCell>
        <mxCell id="WU8aa1a8PACP_APHZHh1-27" value="Clear requirements?" style="strokeWidth=2;html=1;shape=mxgraph.flowchart.decision;whiteSpace=wrap;align=center;fontSize=11;" vertex="1" parent="WU8aa1a8PACP_APHZHh1-13">
          <mxGeometry x="30" y="180" width="120" height="60" as="geometry" />
        </mxCell>
        <mxCell id="WU8aa1a8PACP_APHZHh1-48" style="edgeStyle=orthogonalEdgeStyle;rounded=0;orthogonalLoop=1;jettySize=auto;html=1;exitX=0.5;exitY=1;exitDx=0;exitDy=0;entryX=0.5;entryY=0;entryDx=0;entryDy=0;fontSize=11;" edge="1" parent="WU8aa1a8PACP_APHZHh1-13" target="WU8aa1a8PACP_APHZHh1-37">
          <mxGeometry relative="1" as="geometry">
            <mxPoint x="280" y="310" as="sourcePoint" />
          </mxGeometry>
        </mxCell>
        <mxCell id="WU8aa1a8PACP_APHZHh1-28" value="Prepare DS" style="rounded=1;whiteSpace=wrap;html=1;absoluteArcSize=1;arcSize=14;strokeWidth=2;align=center;fontSize=11;" vertex="1" parent="WU8aa1a8PACP_APHZHh1-13">
          <mxGeometry x="230" y="280" width="100" height="40" as="geometry" />
        </mxCell>
        <mxCell id="WU8aa1a8PACP_APHZHh1-41" style="edgeStyle=orthogonalEdgeStyle;rounded=0;orthogonalLoop=1;jettySize=auto;html=1;exitX=0.5;exitY=1;exitDx=0;exitDy=0;entryX=0.5;entryY=0;entryDx=0;entryDy=0;entryPerimeter=0;fontSize=11;" edge="1" parent="WU8aa1a8PACP_APHZHh1-13" target="WU8aa1a8PACP_APHZHh1-32">
          <mxGeometry relative="1" as="geometry">
            <mxPoint x="90" y="310" as="sourcePoint" />
          </mxGeometry>
        </mxCell>
        <mxCell id="WU8aa1a8PACP_APHZHh1-29" value="Request for clarification" style="rounded=1;whiteSpace=wrap;html=1;absoluteArcSize=1;arcSize=14;strokeWidth=2;align=center;fontSize=11;" vertex="1" parent="WU8aa1a8PACP_APHZHh1-13">
          <mxGeometry x="40" y="280" width="100" height="40" as="geometry" />
        </mxCell>
        <mxCell id="WU8aa1a8PACP_APHZHh1-42" style="edgeStyle=orthogonalEdgeStyle;rounded=0;orthogonalLoop=1;jettySize=auto;html=1;exitX=0.5;exitY=1;exitDx=0;exitDy=0;exitPerimeter=0;entryX=0.5;entryY=0;entryDx=0;entryDy=0;fontSize=11;" edge="1" parent="WU8aa1a8PACP_APHZHh1-13" source="WU8aa1a8PACP_APHZHh1-32" target="WU8aa1a8PACP_APHZHh1-33">
          <mxGeometry relative="1" as="geometry" />
        </mxCell>
        <mxCell id="WU8aa1a8PACP_APHZHh1-47" style="edgeStyle=orthogonalEdgeStyle;rounded=0;orthogonalLoop=1;jettySize=auto;html=1;exitX=1;exitY=0.5;exitDx=0;exitDy=0;exitPerimeter=0;entryX=0;entryY=0.5;entryDx=0;entryDy=0;fontSize=11;" edge="1" parent="WU8aa1a8PACP_APHZHh1-13" source="WU8aa1a8PACP_APHZHh1-32" target="WU8aa1a8PACP_APHZHh1-28">
          <mxGeometry relative="1" as="geometry" />
        </mxCell>
        <mxCell id="WU8aa1a8PACP_APHZHh1-32" value="Require FS updates?" style="strokeWidth=2;html=1;shape=mxgraph.flowchart.decision;whiteSpace=wrap;align=center;fontSize=11;" vertex="1" parent="WU8aa1a8PACP_APHZHh1-13">
          <mxGeometry x="30" y="360" width="120" height="60" as="geometry" />
        </mxCell>
        <mxCell id="WU8aa1a8PACP_APHZHh1-33" value="Request for revised FS" style="rounded=1;whiteSpace=wrap;html=1;absoluteArcSize=1;arcSize=14;strokeWidth=2;align=center;fontSize=11;" vertex="1" parent="WU8aa1a8PACP_APHZHh1-13">
          <mxGeometry x="40" y="460" width="100" height="40" as="geometry" />
        </mxCell>
        <mxCell id="WU8aa1a8PACP_APHZHh1-37" value="Submit DS for internal review and sign-off" style="rounded=1;whiteSpace=wrap;html=1;absoluteArcSize=1;arcSize=14;strokeWidth=2;align=center;fontSize=11;" vertex="1" parent="WU8aa1a8PACP_APHZHh1-13">
          <mxGeometry x="230" y="370" width="100" height="40" as="geometry" />
        </mxCell>
        <mxCell id="WU8aa1a8PACP_APHZHh1-62" style="edgeStyle=orthogonalEdgeStyle;rounded=0;orthogonalLoop=1;jettySize=auto;html=1;exitX=0.5;exitY=0;exitDx=0;exitDy=0;entryX=0.5;entryY=1;entryDx=0;entryDy=0;fontSize=11;" edge="1" parent="WU8aa1a8PACP_APHZHh1-13" source="WU8aa1a8PACP_APHZHh1-60" target="WU8aa1a8PACP_APHZHh1-37">
          <mxGeometry relative="1" as="geometry" />
        </mxCell>
        <mxCell id="WU8aa1a8PACP_APHZHh1-60" value="Revise DS" style="rounded=1;whiteSpace=wrap;html=1;absoluteArcSize=1;arcSize=14;strokeWidth=2;align=center;fontSize=11;" vertex="1" parent="WU8aa1a8PACP_APHZHh1-13">
          <mxGeometry x="230" y="460" width="100" height="40" as="geometry" />
        </mxCell>
        <mxCell id="WU8aa1a8PACP_APHZHh1-63" value="Submit DS for BA review and sign-off" style="rounded=1;whiteSpace=wrap;html=1;absoluteArcSize=1;arcSize=14;strokeWidth=2;align=center;fontSize=11;" vertex="1" parent="WU8aa1a8PACP_APHZHh1-13">
          <mxGeometry x="40" y="540" width="100" height="40" as="geometry" />
        </mxCell>
        <mxCell id="WU8aa1a8PACP_APHZHh1-93" value="Upload sign-off DS to Sharepoint" style="rounded=1;whiteSpace=wrap;html=1;absoluteArcSize=1;arcSize=14;strokeWidth=2;align=center;fontSize=11;" vertex="1" parent="WU8aa1a8PACP_APHZHh1-13">
          <mxGeometry x="50" y="730" width="100" height="40" as="geometry" />
        </mxCell>
        <mxCell id="WU8aa1a8PACP_APHZHh1-18" value="End" style="strokeWidth=2;html=1;shape=mxgraph.flowchart.terminator;whiteSpace=wrap;align=center;" vertex="1" parent="WU8aa1a8PACP_APHZHh1-13">
          <mxGeometry x="320" y="735" width="60" height="30" as="geometry" />
        </mxCell>
        <mxCell id="WU8aa1a8PACP_APHZHh1-15" value="App Developer Lead" style="swimlane;startSize=20;" vertex="1" parent="WU8aa1a8PACP_APHZHh1-11">
          <mxGeometry x="580" y="20" width="180" height="780" as="geometry" />
        </mxCell>
        <mxCell id="WU8aa1a8PACP_APHZHh1-73" style="edgeStyle=orthogonalEdgeStyle;rounded=0;orthogonalLoop=1;jettySize=auto;html=1;exitX=0.5;exitY=1;exitDx=0;exitDy=0;exitPerimeter=0;fontSize=11;" edge="1" parent="WU8aa1a8PACP_APHZHh1-15" source="WU8aa1a8PACP_APHZHh1-30" target="WU8aa1a8PACP_APHZHh1-51">
          <mxGeometry relative="1" as="geometry" />
        </mxCell>
        <mxCell id="WU8aa1a8PACP_APHZHh1-30" value="Pass review?" style="strokeWidth=2;html=1;shape=mxgraph.flowchart.decision;whiteSpace=wrap;align=center;fontSize=11;" vertex="1" parent="WU8aa1a8PACP_APHZHh1-15">
          <mxGeometry x="40" y="200" width="120" height="60" as="geometry" />
        </mxCell>
        <mxCell id="WU8aa1a8PACP_APHZHh1-51" value="Provide sign-off" style="rounded=1;whiteSpace=wrap;html=1;absoluteArcSize=1;arcSize=14;strokeWidth=2;align=center;fontSize=11;" vertex="1" parent="WU8aa1a8PACP_APHZHh1-15">
          <mxGeometry x="50" y="320" width="100" height="40" as="geometry" />
        </mxCell>
        <mxCell id="WU8aa1a8PACP_APHZHh1-16" value="App Designer Manager" style="swimlane;startSize=20;" vertex="1" parent="WU8aa1a8PACP_APHZHh1-11">
          <mxGeometry x="760" y="20" width="180" height="780" as="geometry" />
        </mxCell>
        <mxCell id="WU8aa1a8PACP_APHZHh1-58" style="edgeStyle=orthogonalEdgeStyle;rounded=0;orthogonalLoop=1;jettySize=auto;html=1;exitX=0.75;exitY=1;exitDx=0;exitDy=0;entryX=0.5;entryY=0;entryDx=0;entryDy=0;entryPerimeter=0;fontSize=11;" edge="1" parent="WU8aa1a8PACP_APHZHh1-16" source="WU8aa1a8PACP_APHZHh1-52" target="WU8aa1a8PACP_APHZHh1-54">
          <mxGeometry relative="1" as="geometry" />
        </mxCell>
        <mxCell id="WU8aa1a8PACP_APHZHh1-52" value="Review DS" style="rounded=1;whiteSpace=wrap;html=1;absoluteArcSize=1;arcSize=14;strokeWidth=2;align=center;fontSize=11;" vertex="1" parent="WU8aa1a8PACP_APHZHh1-16">
          <mxGeometry x="-50" y="100" width="100" height="40" as="geometry" />
        </mxCell>
        <mxCell id="WU8aa1a8PACP_APHZHh1-74" style="edgeStyle=orthogonalEdgeStyle;rounded=0;orthogonalLoop=1;jettySize=auto;html=1;exitX=0.5;exitY=1;exitDx=0;exitDy=0;exitPerimeter=0;entryX=0.5;entryY=0;entryDx=0;entryDy=0;fontSize=11;" edge="1" parent="WU8aa1a8PACP_APHZHh1-16" source="WU8aa1a8PACP_APHZHh1-54" target="WU8aa1a8PACP_APHZHh1-56">
          <mxGeometry relative="1" as="geometry" />
        </mxCell>
        <mxCell id="WU8aa1a8PACP_APHZHh1-54" value="Pass review?" style="strokeWidth=2;html=1;shape=mxgraph.flowchart.decision;whiteSpace=wrap;align=center;fontSize=11;" vertex="1" parent="WU8aa1a8PACP_APHZHh1-16">
          <mxGeometry x="40" y="200" width="120" height="60" as="geometry" />
        </mxCell>
        <mxCell id="WU8aa1a8PACP_APHZHh1-56" value="Provide sign-off" style="rounded=1;whiteSpace=wrap;html=1;absoluteArcSize=1;arcSize=14;strokeWidth=2;align=center;fontSize=11;" vertex="1" parent="WU8aa1a8PACP_APHZHh1-16">
          <mxGeometry x="50" y="320" width="100" height="40" as="geometry" />
        </mxCell>
        <mxCell id="WU8aa1a8PACP_APHZHh1-38" style="edgeStyle=orthogonalEdgeStyle;rounded=0;orthogonalLoop=1;jettySize=auto;html=1;exitX=1;exitY=0.5;exitDx=0;exitDy=0;entryX=0;entryY=0.5;entryDx=0;entryDy=0;fontSize=11;" edge="1" parent="WU8aa1a8PACP_APHZHh1-11" source="WU8aa1a8PACP_APHZHh1-23" target="WU8aa1a8PACP_APHZHh1-24">
          <mxGeometry relative="1" as="geometry" />
        </mxCell>
        <mxCell id="WU8aa1a8PACP_APHZHh1-43" style="edgeStyle=orthogonalEdgeStyle;rounded=0;orthogonalLoop=1;jettySize=auto;html=1;exitX=0;exitY=0.5;exitDx=0;exitDy=0;entryX=0.5;entryY=1;entryDx=0;entryDy=0;fontSize=11;" edge="1" parent="WU8aa1a8PACP_APHZHh1-11" source="WU8aa1a8PACP_APHZHh1-33" target="WU8aa1a8PACP_APHZHh1-44">
          <mxGeometry relative="1" as="geometry">
            <mxPoint x="80" y="310" as="targetPoint" />
          </mxGeometry>
        </mxCell>
        <mxCell id="WU8aa1a8PACP_APHZHh1-57" style="edgeStyle=orthogonalEdgeStyle;rounded=0;orthogonalLoop=1;jettySize=auto;html=1;exitX=0.25;exitY=1;exitDx=0;exitDy=0;entryX=0.5;entryY=0;entryDx=0;entryDy=0;entryPerimeter=0;fontSize=11;" edge="1" parent="WU8aa1a8PACP_APHZHh1-11" source="WU8aa1a8PACP_APHZHh1-52" target="WU8aa1a8PACP_APHZHh1-30">
          <mxGeometry relative="1" as="geometry" />
        </mxCell>
        <mxCell id="WU8aa1a8PACP_APHZHh1-72" style="edgeStyle=orthogonalEdgeStyle;rounded=0;orthogonalLoop=1;jettySize=auto;html=1;exitX=0;exitY=0.5;exitDx=0;exitDy=0;exitPerimeter=0;entryX=1;entryY=0.25;entryDx=0;entryDy=0;fontSize=11;" edge="1" parent="WU8aa1a8PACP_APHZHh1-11" source="WU8aa1a8PACP_APHZHh1-30" target="WU8aa1a8PACP_APHZHh1-60">
          <mxGeometry relative="1" as="geometry">
            <Array as="points">
              <mxPoint x="550" y="250" />
              <mxPoint x="550" y="490" />
            </Array>
          </mxGeometry>
        </mxCell>
        <mxCell id="WU8aa1a8PACP_APHZHh1-80" style="edgeStyle=orthogonalEdgeStyle;rounded=0;orthogonalLoop=1;jettySize=auto;html=1;exitX=0.5;exitY=1;exitDx=0;exitDy=0;entryX=1;entryY=0.25;entryDx=0;entryDy=0;fontSize=11;" edge="1" parent="WU8aa1a8PACP_APHZHh1-11" source="WU8aa1a8PACP_APHZHh1-51" target="WU8aa1a8PACP_APHZHh1-63">
          <mxGeometry relative="1" as="geometry" />
        </mxCell>
        <mxCell id="WU8aa1a8PACP_APHZHh1-78" style="edgeStyle=orthogonalEdgeStyle;rounded=0;orthogonalLoop=1;jettySize=auto;html=1;exitX=0.5;exitY=1;exitDx=0;exitDy=0;fontSize=11;entryX=1;entryY=0.75;entryDx=0;entryDy=0;" edge="1" parent="WU8aa1a8PACP_APHZHh1-11" source="WU8aa1a8PACP_APHZHh1-56" target="WU8aa1a8PACP_APHZHh1-63">
          <mxGeometry relative="1" as="geometry">
            <mxPoint x="900" y="540" as="targetPoint" />
          </mxGeometry>
        </mxCell>
        <mxCell id="WU8aa1a8PACP_APHZHh1-94" style="edgeStyle=orthogonalEdgeStyle;rounded=0;orthogonalLoop=1;jettySize=auto;html=1;exitX=0;exitY=0.5;exitDx=0;exitDy=0;fontSize=11;" edge="1" parent="WU8aa1a8PACP_APHZHh1-11" source="WU8aa1a8PACP_APHZHh1-63" target="WU8aa1a8PACP_APHZHh1-70">
          <mxGeometry relative="1" as="geometry" />
        </mxCell>
        <mxCell id="WU8aa1a8PACP_APHZHh1-95" style="edgeStyle=orthogonalEdgeStyle;rounded=0;orthogonalLoop=1;jettySize=auto;html=1;exitX=1;exitY=0.5;exitDx=0;exitDy=0;entryX=0;entryY=0.5;entryDx=0;entryDy=0;fontSize=11;" edge="1" parent="WU8aa1a8PACP_APHZHh1-11" source="WU8aa1a8PACP_APHZHh1-37" target="WU8aa1a8PACP_APHZHh1-52">
          <mxGeometry relative="1" as="geometry">
            <Array as="points">
              <mxPoint x="520" y="410" />
              <mxPoint x="520" y="140" />
            </Array>
          </mxGeometry>
        </mxCell>
        <mxCell id="WU8aa1a8PACP_APHZHh1-96" style="edgeStyle=orthogonalEdgeStyle;rounded=0;orthogonalLoop=1;jettySize=auto;html=1;exitX=1;exitY=0.5;exitDx=0;exitDy=0;entryX=0;entryY=0.5;entryDx=0;entryDy=0;fontSize=11;" edge="1" parent="WU8aa1a8PACP_APHZHh1-11" source="WU8aa1a8PACP_APHZHh1-69" target="WU8aa1a8PACP_APHZHh1-93">
          <mxGeometry relative="1" as="geometry" />
        </mxCell>
        <mxCell id="WU8aa1a8PACP_APHZHh1-98" style="edgeStyle=orthogonalEdgeStyle;rounded=0;orthogonalLoop=1;jettySize=auto;html=1;exitX=0;exitY=0.5;exitDx=0;exitDy=0;exitPerimeter=0;entryX=1;entryY=0.75;entryDx=0;entryDy=0;fontSize=11;" edge="1" parent="WU8aa1a8PACP_APHZHh1-11" source="WU8aa1a8PACP_APHZHh1-54" target="WU8aa1a8PACP_APHZHh1-60">
          <mxGeometry relative="1" as="geometry">
            <Array as="points">
              <mxPoint x="780" y="250" />
              <mxPoint x="780" y="510" />
            </Array>
          </mxGeometry>
        </mxCell>
        <mxCell id="WU8aa1a8PACP_APHZHh1-97" style="edgeStyle=orthogonalEdgeStyle;rounded=0;orthogonalLoop=1;jettySize=auto;html=1;exitX=1;exitY=0.5;exitDx=0;exitDy=0;fontSize=11;" edge="1" parent="1" source="WU8aa1a8PACP_APHZHh1-93">
          <mxGeometry relative="1" as="geometry">
            <mxPoint x="510" y="810" as="targetPoint" />
          </mxGeometry>
        </mxCell>
      </root>
    </mxGraphModel>
  </diagram>
</mxfile>
